<svg xmlns="http://www.w3.org/2000/svg" xmlns:xlink="http://www.w3.org/1999/xlink" version="1.1" x="0px" y="0px" viewBox="0 0 47 37.5" xml:space="preserve"><g transform="translate(-167 -200)"><g xmlns="http://www.w3.org/2000/svg" xmlns:xlink="http://www.w3.org/1999/xlink"><path d="M169,206v6v7v6v3h43v-3v-6v-7v-6v-3h-43V206z M178,215.5c0,1.207-0.86,2.217-2,2.449v-4.898    C177.14,213.283,178,214.293,178,215.5z M175,218h-5v-5h5V218z M175.5,219c1.934,0,3.5-1.567,3.5-3.5s-1.566-3.5-3.5-3.5H170v-5    h2.5c4.688,0,8.5,3.813,8.5,8.5s-3.813,8.5-8.5,8.5H170v-5H175.5z M203,215.5c0-1.207,0.86-2.217,2-2.449v4.898    C203.86,217.717,203,216.707,203,215.5z M206,213h5v5h-5V213z M205.5,212c-1.934,0-3.5,1.567-3.5,3.5s1.566,3.5,3.5,3.5h5.5v5    h-2.5c-4.688,0-8.5-3.813-8.5-8.5s3.813-8.5,8.5-8.5h2.5v5H205.5z M211,204v2h-2.5c-5.246,0-9.5,4.253-9.5,9.5s4.254,9.5,9.5,9.5    h2.5v2h-20v-8.05c1.694-0.245,3-1.688,3-3.45s-1.306-3.205-3-3.45V204H211z M191,213.051c1.14,0.232,2,1.242,2,2.449    s-0.86,2.217-2,2.449V213.051z M190,217.949c-1.14-0.232-2-1.242-2-2.449s0.86-2.217,2-2.449V217.949z M190,204v8.05    c-1.694,0.245-3,1.688-3,3.45s1.306,3.205,3,3.45V227h-20v-2h2.5c5.246,0,9.5-4.253,9.5-9.5s-4.254-9.5-9.5-9.5H170v-2H190z"/></g></g><text x="0" y="45" fill="#000000" font-size="5px" font-weight="bold" font-family="'Helvetica Neue', Helvetica, Arial-Unicode, Arial, Sans-serif">Created by Hea Poh Lin</text><text x="0" y="50" fill="#000000" font-size="5px" font-weight="bold" font-family="'Helvetica Neue', Helvetica, Arial-Unicode, Arial, Sans-serif">from the Noun Project</text></svg>